<svg width="148" height="27" viewBox="0 0 148 27" fill="none" xmlns="http://www.w3.org/2000/svg">
<path d="M0.30814 26.6744V0.220947H3.10465V24.2558H17.9186V26.6744H0.30814ZM39.0079 26.9012C35.0399 26.9012 31.1474 25.5029 29.1823 23.4622L30.2782 21.3082C32.1678 23.1599 35.5311 24.5204 39.0079 24.5204C43.9585 24.5204 46.1125 22.4419 46.1125 19.8343C46.1125 12.5785 29.8247 17.0378 29.8247 7.25002C29.8247 3.35758 32.848 -0.00579616 39.5747 -0.00579616C42.5602 -0.00579616 45.659 0.86339 47.7753 2.33723L46.8306 4.56688C44.5631 3.09304 41.9178 2.37502 39.5747 2.37502C34.7375 2.37502 32.5835 4.52909 32.5835 7.17444C32.5835 14.4303 48.8713 10.0465 48.8713 19.6832C48.8713 23.5756 45.7724 26.9012 39.0079 26.9012ZM71.7045 26.6744V16.1744H75.9795C79.3395 16.1744 81.6045 18.3344 81.6045 21.4244C81.6045 24.5144 79.3395 26.6744 75.9795 26.6744H71.7045ZM72.8145 25.7144H75.9195C78.7095 25.7144 80.5095 23.9444 80.5095 21.4244C80.5095 18.9044 78.7095 17.1344 75.9195 17.1344H72.8145V25.7144ZM88.9571 25.7144H95.2721V26.6744H87.8471V16.1744H95.0471V17.1344H88.9571V20.8694H94.3871V21.8144H88.9571V25.7144ZM104.526 26.7644C102.951 26.7644 101.406 26.2094 100.626 25.3994L101.061 24.5444C101.811 25.2794 103.146 25.8194 104.526 25.8194C106.491 25.8194 107.346 24.9944 107.346 23.9594C107.346 21.0794 100.881 22.8494 100.881 18.9644C100.881 17.4194 102.081 16.0844 104.751 16.0844C105.936 16.0844 107.166 16.4294 108.006 17.0144L107.631 17.8994C106.731 17.3144 105.681 17.0294 104.751 17.0294C102.831 17.0294 101.976 17.8844 101.976 18.9344C101.976 21.8144 108.441 20.0744 108.441 23.8994C108.441 25.4444 107.211 26.7644 104.526 26.7644ZM114.61 26.6744V16.1744H115.72V26.6744H114.61ZM130.281 24.9644V21.4244H131.346V25.4294C130.356 26.3144 128.946 26.7644 127.491 26.7644C124.296 26.7644 121.956 24.4994 121.956 21.4244C121.956 18.3494 124.296 16.0844 127.506 16.0844C129.096 16.0844 130.476 16.5944 131.406 17.5994L130.716 18.3044C129.831 17.4344 128.781 17.0744 127.551 17.0744C124.956 17.0744 123.051 18.9194 123.051 21.4244C123.051 23.9144 124.956 25.7744 127.536 25.7744C128.541 25.7744 129.471 25.5494 130.281 24.9644ZM145.918 16.1744H147.013V26.6744H146.098L139.348 18.1544V26.6744H138.238V16.1744H139.153L145.918 24.6944V16.1744Z" fill="white"/>
</svg>
