<svg width="157" height="92" viewBox="0 0 157 92" fill="none" xmlns="http://www.w3.org/2000/svg">
<path d="M4.30814 59.6744V33.2209H7.10465V57.2558H21.9186V59.6744H4.30814ZM43.0079 59.9012C39.0399 59.9012 35.1474 58.5029 33.1823 56.4622L34.2782 54.3081C36.1678 56.1599 39.5311 57.5203 43.0079 57.5203C47.9585 57.5203 50.1125 55.4418 50.1125 52.8343C50.1125 45.5785 33.8247 50.0378 33.8247 40.25C33.8247 36.3575 36.848 32.9942 43.5747 32.9942C46.5602 32.9942 49.659 33.8634 51.7753 35.3372L50.8306 37.5668C48.5631 36.093 45.9178 35.375 43.5747 35.375C38.7375 35.375 36.5835 37.5291 36.5835 40.1744C36.5835 47.4302 52.8713 43.0465 52.8713 52.6831C52.8713 56.5756 49.7724 59.9012 43.0079 59.9012ZM75.7045 59.6744V49.1744H79.9795C83.3395 49.1744 85.6045 51.3344 85.6045 54.4244C85.6045 57.5144 83.3395 59.6744 79.9795 59.6744H75.7045ZM76.8145 58.7144H79.9195C82.7095 58.7144 84.5095 56.9444 84.5095 54.4244C84.5095 51.9044 82.7095 50.1344 79.9195 50.1344H76.8145V58.7144ZM92.9571 58.7144H99.2721V59.6744H91.8471V49.1744H99.0471V50.1344H92.9571V53.8694H98.3871V54.8144H92.9571V58.7144ZM108.526 59.7644C106.951 59.7644 105.406 59.2094 104.626 58.3994L105.061 57.5444C105.811 58.2794 107.146 58.8194 108.526 58.8194C110.491 58.8194 111.346 57.9944 111.346 56.9594C111.346 54.0794 104.881 55.8494 104.881 51.9644C104.881 50.4194 106.081 49.0844 108.751 49.0844C109.936 49.0844 111.166 49.4294 112.006 50.0144L111.631 50.8994C110.731 50.3144 109.681 50.0294 108.751 50.0294C106.831 50.0294 105.976 50.8844 105.976 51.9344C105.976 54.8144 112.441 53.0744 112.441 56.8994C112.441 58.4444 111.211 59.7644 108.526 59.7644ZM118.61 59.6744V49.1744H119.72V59.6744H118.61ZM134.281 57.9644V54.4244H135.346V58.4294C134.356 59.3144 132.946 59.7644 131.491 59.7644C128.296 59.7644 125.956 57.4994 125.956 54.4244C125.956 51.3494 128.296 49.0844 131.506 49.0844C133.096 49.0844 134.476 49.5944 135.406 50.5994L134.716 51.3044C133.831 50.4344 132.781 50.0744 131.551 50.0744C128.956 50.0744 127.051 51.9194 127.051 54.4244C127.051 56.9144 128.956 58.7744 131.536 58.7744C132.541 58.7744 133.471 58.5494 134.281 57.9644ZM149.918 49.1744H151.013V59.6744H150.098L143.348 51.1544V59.6744H142.238V49.1744H143.153L149.918 57.6944V49.1744Z" fill="#001D21"/>
</svg>
